<?xml version="1.0" encoding="UTF-8"?>
<svg width="50px" height="50px" viewBox="0 0 50 50" version="1.1" xmlns="http://www.w3.org/2000/svg" xmlns:xlink="http://www.w3.org/1999/xlink">
    <!-- Generator: Sketch 63.1 (92452) - https://sketch.com/ -->
    <title>Group 5</title>
    <desc>Created with Sketch.</desc>
    <g id="Home" stroke="none" stroke-width="1" fill="none" fill-rule="evenodd">
        <g id="Home-page" transform="translate(-865.000000, -2327.000000)">
            <g id="how-to" transform="translate(205.000000, 2134.000000)">
                <g id="Group-6-Copy" transform="translate(660.000000, 193.000000)">
                    <g id="Group-5">
                        <circle id="Oval" fill="#115CFA" cx="25" cy="25" r="25"></circle>
                        <path d="M30.2402344,32 L30.2402344,29.65625 L23.8535156,29.65625 L23.8535156,29.5976562 L26.8125,26.765625 C29.1953125,24.4902344 30.0449219,23.4257812 30.0449219,21.6972656 C30.0449219,19.3535156 28.0527344,17.5957031 25.0351562,17.5957031 C21.9785156,17.5957031 19.8300781,19.4804688 19.8300781,22.1953125 L22.5644531,22.1953125 C22.5644531,20.8378906 23.6289062,19.890625 25.0351562,19.890625 C26.3046875,19.890625 27.1738281,20.75 27.1738281,21.8828125 C27.1738281,22.859375 26.7734375,23.5332031 24.9863281,25.2519531 L19.9960938,29.9785156 L19.9960938,32 L30.2402344,32 Z" id="2" fill="#FFFFFF" fill-rule="nonzero"></path>
                    </g>
                </g>
            </g>
        </g>
    </g>
</svg>