<?xml version="1.0" encoding="UTF-8"?>
<svg width="50px" height="50px" viewBox="0 0 50 50" version="1.1" xmlns="http://www.w3.org/2000/svg" xmlns:xlink="http://www.w3.org/1999/xlink">
    <!-- Generator: Sketch 63.1 (92452) - https://sketch.com/ -->
    <title>Group 5</title>
    <desc>Created with Sketch.</desc>
    <g id="Home" stroke="none" stroke-width="1" fill="none" fill-rule="evenodd">
        <g id="Home-page" transform="translate(-205.000000, -2537.000000)">
            <g id="how-to" transform="translate(205.000000, 2134.000000)">
                <g id="Group-6-Copy-2" transform="translate(0.000000, 403.000000)">
                    <g id="Group-5">
                        <circle id="Oval" fill="#115CFA" cx="25" cy="25" r="25"></circle>
                        <path d="M25.2304688,32.3125 C28.5019531,32.3125 30.71875,30.6132812 30.71875,28.0546875 C30.71875,26.1210938 29.3515625,24.8808594 27.2617188,24.6855469 L27.2617188,24.6269531 C28.921875,24.2851562 30.2011719,23.1230469 30.2011719,21.3261719 C30.2011719,19.0703125 28.1894531,17.5957031 25.2109375,17.5957031 C22.2617188,17.5957031 20.2109375,19.2460938 20.0644531,21.8242188 L22.7695312,21.8242188 C22.8574219,20.6035156 23.8242188,19.8613281 25.2109375,19.8613281 C26.6171875,19.8613281 27.4082031,20.59375 27.4082031,21.7460938 C27.4082031,22.8984375 26.4511719,23.6992188 24.9765625,23.6992188 L23.4042969,23.6992188 L23.4042969,25.7988281 L25.015625,25.7988281 C26.7246094,25.7988281 27.7304688,26.5605469 27.7207031,27.9277344 C27.7207031,29.1191406 26.7050781,29.9394531 25.2304688,29.9394531 C23.6777344,29.9394531 22.6621094,29.1582031 22.5644531,28.0058594 L19.7519531,28.0058594 C19.8789062,30.59375 22.046875,32.3125 25.2304688,32.3125 Z" id="3" fill="#FFFFFF" fill-rule="nonzero"></path>
                    </g>
                </g>
            </g>
        </g>
    </g>
</svg>