<?xml version="1.0" encoding="UTF-8"?>
<svg width="123px" height="38px" viewBox="0 0 123 38" version="1.1" xmlns="http://www.w3.org/2000/svg" xmlns:xlink="http://www.w3.org/1999/xlink">
    <!-- Generator: Sketch 63.1 (92452) - https://sketch.com/ -->
    <title>Shape</title>
    <desc>Created with Sketch.</desc>
    <g id="About" stroke="none" stroke-width="1" fill="none" fill-rule="evenodd">
        <g transform="translate(-1066.000000, -4672.000000)" fill="#B0B4B9" id="partners">
            <g transform="translate(0.000000, 4346.000000)">
                <path d="M1130.8235,335.547548 C1130.8235,336.916917 1129.70916,338.02002 1128.32583,338.02002 C1126.94251,338.02002 1125.82816,336.916917 1125.82816,335.547548 C1125.82816,334.178178 1126.90408,333.075075 1128.32583,333.075075 C1129.74758,333.113113 1130.8235,334.216216 1130.8235,335.547548 Z M1120.52542,340.530531 L1120.52542,341.139139 C1120.52542,341.139139 1119.33422,339.617618 1116.79812,339.617618 C1112.60972,339.617618 1109.34354,342.774775 1109.34354,347.149149 C1109.34354,351.485485 1112.5713,354.680681 1116.79812,354.680681 C1119.37265,354.680681 1120.52542,353.121121 1120.52542,353.121121 L1120.52542,353.767768 C1120.52542,354.072072 1120.75597,354.3003 1121.06338,354.3003 L1124.17586,354.3003 L1124.17586,339.997998 L1121.06338,339.997998 C1120.75597,339.997998 1120.52542,340.264264 1120.52542,340.530531 Z M1120.52542,349.697698 C1119.94903,350.534535 1118.79626,351.257257 1117.41294,351.257257 C1114.95369,351.257257 1113.07083,349.735736 1113.07083,347.149149 C1113.07083,344.562563 1114.95369,343.041041 1117.41294,343.041041 C1118.75783,343.041041 1119.98746,343.801802 1120.52542,344.600601 L1120.52542,349.697698 Z M1126.4814,339.997998 L1130.17027,339.997998 L1130.17027,354.3003 L1126.4814,354.3003 L1126.4814,339.997998 Z M1181.58384,339.617618 C1179.04775,339.617618 1177.85655,341.139139 1177.85655,341.139139 L1177.85655,333.113113 L1174.16768,333.113113 L1174.16768,354.3003 L1177.28016,354.3003 C1177.58757,354.3003 1177.81812,354.034034 1177.81812,353.767768 L1177.81812,353.121121 C1177.81812,353.121121 1179.00932,354.680681 1181.54542,354.680681 C1185.73382,354.680681 1189,351.485485 1189,347.149149 C1189,342.812813 1185.73382,339.617618 1181.58384,339.617618 L1181.58384,339.617618 Z M1180.96903,351.219219 C1179.54728,351.219219 1178.43293,350.496496 1177.85655,349.65966 L1177.85655,344.562563 C1178.43293,343.801802 1179.66256,343.003003 1180.96903,343.003003 C1183.42827,343.003003 1185.31113,344.524525 1185.31113,347.111111 C1185.31113,349.697698 1183.42827,351.219219 1180.96903,351.219219 L1180.96903,351.219219 Z M1172.2464,345.817818 L1172.2464,354.338338 L1168.55753,354.338338 L1168.55753,346.236236 C1168.55753,343.877878 1167.78902,342.926927 1165.71403,342.926927 C1164.59969,342.926927 1163.44691,343.497497 1162.71683,344.334334 L1162.71683,354.3003 L1159.02796,354.3003 L1159.02796,339.997998 L1161.94831,339.997998 C1162.25572,339.997998 1162.48627,340.264264 1162.48627,340.530531 L1162.48627,341.139139 C1163.56219,340.036036 1164.98394,339.617618 1166.40569,339.617618 C1168.01957,339.617618 1169.36447,340.074074 1170.44039,340.986987 C1171.74686,342.052052 1172.2464,343.421421 1172.2464,345.817818 L1172.2464,345.817818 Z M1150.07477,339.617618 C1147.53868,339.617618 1146.34748,341.139139 1146.34748,341.139139 L1146.34748,333.113113 L1142.65862,333.113113 L1142.65862,354.3003 L1145.7711,354.3003 C1146.0785,354.3003 1146.30906,354.034034 1146.30906,353.767768 L1146.30906,353.121121 C1146.30906,353.121121 1147.50025,354.680681 1150.03635,354.680681 C1154.22475,354.680681 1157.49093,351.485485 1157.49093,347.149149 C1157.52936,342.812813 1154.26317,339.617618 1150.07477,339.617618 L1150.07477,339.617618 Z M1149.45996,351.219219 C1148.03821,351.219219 1146.92387,350.496496 1146.34748,349.65966 L1146.34748,344.562563 C1146.92387,343.801802 1148.15349,343.003003 1149.45996,343.003003 C1151.91921,343.003003 1153.80207,344.524525 1153.80207,347.111111 C1153.80207,349.697698 1151.91921,351.219219 1149.45996,351.219219 L1149.45996,351.219219 Z M1139.46928,339.617618 C1140.58363,339.617618 1141.16001,339.807808 1141.16001,339.807808 L1141.16001,343.193193 C1141.16001,343.193193 1138.08596,342.166166 1136.16467,344.334334 L1136.16467,354.338338 L1132.47581,354.338338 L1132.47581,339.997998 L1135.58829,339.997998 C1135.89569,339.997998 1136.12625,340.264264 1136.12625,340.530531 L1136.12625,341.139139 C1136.81791,340.34034 1138.31651,339.617618 1139.46928,339.617618 L1139.46928,339.617618 Z M1101.15887,353.007007 C1100.96674,352.550551 1100.77461,352.056056 1100.58248,351.637638 C1100.27508,350.952953 1099.96767,350.306306 1099.69869,349.697698 L1099.66027,349.65966 C1097.00889,343.953954 1094.16923,338.172172 1091.17203,332.466466 L1091.05675,332.238238 C1090.74935,331.667668 1090.44194,331.059059 1090.13454,330.45045 C1089.75028,329.765766 1089.36602,329.043043 1088.75121,328.358358 C1087.52159,326.836837 1085.75401,326 1083.87115,326 C1081.94986,326 1080.22071,326.836837 1078.95266,328.282282 C1078.37627,328.966967 1077.95359,329.68969 1077.56934,330.374374 C1077.26193,330.982983 1076.95452,331.591592 1076.64712,332.162162 L1076.53184,332.39039 C1073.57306,338.096096 1070.69114,343.877878 1068.03976,349.583584 L1068.00134,349.65966 C1067.73236,350.268268 1067.42495,350.914915 1067.11755,351.5996 C1066.92542,352.018018 1066.73329,352.474474 1066.54116,352.968969 C1066.04163,354.376376 1065.88793,355.707708 1066.08005,357.077077 C1066.50274,359.92993 1068.42402,362.326326 1071.07539,363.391391 C1072.07446,363.80981 1073.11196,364 1074.18787,364 C1074.49528,364 1074.87954,363.961962 1075.18694,363.923924 C1076.45499,363.771772 1077.76146,363.353353 1079.02951,362.630631 C1080.60497,361.755756 1082.10357,360.500501 1083.7943,358.674675 C1085.48503,360.500501 1087.02206,361.755756 1088.55908,362.630631 C1089.82713,363.353353 1091.1336,363.771772 1092.40165,363.923924 C1092.70906,363.961962 1093.09332,364 1093.40072,364 C1094.47664,364 1095.55256,363.80981 1096.50936,363.391391 C1099.19916,362.326326 1101.08202,359.891892 1101.5047,357.077077 C1101.8121,355.745746 1101.6584,354.414414 1101.15887,353.007007 L1101.15887,353.007007 Z M1083.83272,354.984985 C1081.75774,352.398398 1080.41284,349.963964 1079.95173,347.90991 C1079.7596,347.035035 1079.72117,346.274274 1079.83645,345.58959 C1079.9133,344.980981 1080.14386,344.448448 1080.45126,343.991992 C1081.18135,342.964965 1082.41097,342.318318 1083.83272,342.318318 C1085.25447,342.318318 1086.52252,342.926927 1087.21418,343.991992 C1087.52159,344.448448 1087.75214,344.980981 1087.829,345.58959 C1087.94427,346.274274 1087.90585,347.073073 1087.71372,347.90991 C1087.25261,349.925926 1085.90771,352.36036 1083.83272,354.984985 L1083.83272,354.984985 Z M1099.16073,356.772773 C1098.89175,358.750751 1097.54685,360.462462 1095.66784,361.223223 C1094.74562,361.603604 1093.74655,361.717718 1092.74748,361.603604 C1091.78684,361.489489 1090.8262,361.185185 1089.82713,360.614615 C1088.44381,359.853854 1087.06048,358.674675 1085.4466,356.924925 C1087.9827,353.843844 1089.51973,351.029029 1090.09611,348.518519 C1090.36509,347.339339 1090.40352,346.274274 1090.28824,345.285285 C1090.13454,344.334334 1089.78871,343.459459 1089.25075,342.698699 C1088.05955,340.986987 1086.06141,339.997998 1083.83272,339.997998 C1081.60403,339.997998 1079.6059,341.025025 1078.4147,342.698699 C1077.87674,343.459459 1077.53091,344.334334 1077.37721,345.285285 C1077.2235,346.274274 1077.26193,347.377377 1077.56934,348.518519 C1078.14572,351.029029 1079.72117,353.881882 1082.21884,356.962963 C1080.64339,358.712713 1079.22164,359.891892 1077.83832,360.652653 C1076.83925,361.223223 1075.87861,361.527528 1074.91796,361.641642 C1073.88047,361.755756 1072.8814,361.603604 1071.99761,361.261261 C1070.11475,360.500501 1068.76985,358.788789 1068.50087,356.810811 C1068.3856,355.85986 1068.46245,354.908909 1068.8467,353.843844 C1068.96198,353.463463 1069.15411,353.083083 1069.34624,352.626627 C1069.61522,352.018018 1069.92262,351.371371 1070.23003,350.724725 L1070.26845,350.648649 C1072.91983,344.980981 1075.76333,339.199199 1078.72211,333.56957 L1078.83738,333.341341 C1079.14479,332.770771 1079.45219,332.162162 1079.7596,331.591592 C1080.06701,330.982983 1080.41284,330.412412 1080.83552,329.917918 C1081.64246,329.005005 1082.71838,328.510511 1083.90957,328.510511 C1085.10077,328.510511 1086.17669,329.005005 1086.98363,329.917918 C1087.40631,330.412412 1087.75214,330.982983 1088.05955,331.591592 C1088.36695,332.162162 1088.67436,332.770771 1088.98177,333.341341 L1089.09704,333.56957 C1092.0174,339.237237 1094.8609,345.019019 1097.50843,350.686687 L1097.50843,350.724725 C1097.81583,351.333333 1098.08481,352.018018 1098.39222,352.626627 C1098.58435,353.083083 1098.77647,353.463463 1098.89175,353.843844 C1099.19916,354.832833 1099.31443,355.783784 1099.16073,356.772773 Z" id="Shape"></path>
            </g>
        </g>
    </g>
</svg>