<?xml version="1.0" encoding="UTF-8"?>
<svg width="95px" height="49px" viewBox="0 0 95 49" version="1.1" xmlns="http://www.w3.org/2000/svg" xmlns:xlink="http://www.w3.org/1999/xlink">
    <!-- Generator: Sketch 63.1 (92452) - https://sketch.com/ -->
    <title>Shape</title>
    <desc>Created with Sketch.</desc>
    <g id="About" stroke="none" stroke-width="1" fill="none" fill-rule="evenodd">
        <g transform="translate(-861.000000, -4667.000000)" fill="#B0B4B9" id="partners">
            <g transform="translate(0.000000, 4346.000000)">
                <path d="M953.778942,367.589038 L954.251236,367.589038 L954.902236,369.337922 L954.915001,369.337922 L955.540471,367.589038 L956,367.589038 L956,369.712683 L955.693647,369.712683 L955.693647,367.976291 L955.680883,367.976291 L955.029883,369.712683 L954.736295,369.712683 L954.09806,367.976291 L954.085295,367.976291 L954.085295,369.712683 L953.778942,369.712683 L953.778942,367.589038 L953.778942,367.589038 Z M953.625766,367.589038 L953.625766,367.838878 L952.885413,367.838878 L952.885413,369.712683 L952.579061,369.712683 L952.579061,367.838878 L951.838708,367.838878 L951.838708,367.589038 L953.625766,367.589038 L953.625766,367.589038 Z M956,336.196558 C956,335.084767 955.080942,334.185341 953.944883,334.185341 C952.808825,334.185341 951.877002,335.084767 951.877002,336.196558 L951.877002,340.44385 C951.877002,341.555641 952.808825,342.467559 953.944883,342.467559 C955.080942,342.467559 956,341.555641 956,340.44385 L956,336.196558 Z M944.664947,330.637604 C944.664947,329.519567 943.745888,328.615143 942.571536,328.615143 C941.435478,328.615143 940.516419,329.519567 940.516419,330.637604 L940.516419,340.44385 C940.516419,341.555641 941.435478,342.467559 942.571536,342.467559 C943.745888,342.467559 944.664947,341.555641 944.664947,340.44385 L944.664947,330.637604 Z M933.291599,323.017463 C933.291599,321.904423 932.372541,321 931.236483,321 C930.100425,321 929.168602,321.904423 929.168602,323.017463 L929.168602,344.466284 C929.168602,345.590567 930.100425,346.489994 931.236483,346.489994 C932.372541,346.489994 933.291599,345.590567 933.291599,344.466284 L933.291599,323.017463 Z M921.931017,330.637604 C921.931017,329.519567 921.011959,328.615143 919.863136,328.615143 C918.727077,328.615143 917.808019,329.519567 917.808019,330.637604 L917.808019,340.44385 C917.808019,341.555641 918.727077,342.467559 919.863136,342.467559 C921.011959,342.467559 921.931017,341.555641 921.931017,340.44385 L921.931017,330.637604 Z M910.570434,336.196558 C910.570434,335.084767 909.638611,334.185341 908.502553,334.185341 C907.366495,334.185341 906.434672,335.084767 906.434672,336.196558 L906.434672,340.44385 C906.434672,341.555641 907.366495,342.467559 908.502553,342.467559 C909.638611,342.467559 910.570434,341.555641 910.570434,340.44385 L910.570434,336.196558 Z M899.222616,330.637604 C899.222616,329.519567 898.290793,328.615143 897.154735,328.615143 C896.005912,328.615143 895.074089,329.519567 895.074089,330.637604 L895.074089,340.44385 C895.074089,341.555641 896.005912,342.467559 897.154735,342.467559 C898.290793,342.467559 899.222616,341.555641 899.222616,340.44385 L899.222616,330.637604 Z M887.862034,323.017463 C887.862034,321.904423 886.930211,321 885.794152,321 C884.645329,321 883.726271,321.904423 883.726271,323.017463 L883.726271,344.466284 C883.726271,345.590567 884.645329,346.489994 885.794152,346.489994 C886.930211,346.489994 887.862034,345.590567 887.862034,344.466284 L887.862034,323.017463 Z M876.501451,330.637604 C876.501451,329.519567 875.569628,328.615143 874.43357,328.615143 C873.284747,328.615143 872.365688,329.519567 872.365688,330.637604 L872.365688,340.44385 C872.365688,341.555641 873.284747,342.467559 874.43357,342.467559 C875.569628,342.467559 876.501451,341.555641 876.501451,340.44385 L876.501451,330.637604 Z M865.135763,336.196558 C865.135763,335.084767 864.207769,334.185341 863.069158,334.185341 C861.92927,334.185341 861,335.084767 861,336.196558 L861,340.44385 C861,341.555641 861.92927,342.467559 863.069158,342.467559 C864.207769,342.467559 865.135763,341.555641 865.135763,340.44385 L865.135763,336.196558 Z M907.838789,357.233142 C907.774965,357.22065 906.013437,356.745953 904.571025,356.745953 C902.911615,356.745953 902.005321,357.28311 902.005321,358.070108 C902.005321,359.044487 903.230732,359.394264 903.907261,359.606628 L905.056084,359.956405 C907.7622,360.805864 909.000376,362.617208 909.000376,364.578458 C909.000376,368.638368 905.349672,370 902.158497,370 C899.950204,370 897.869558,369.612747 897.665323,369.562779 L897.665323,365.840153 C898.035499,365.940089 899.784263,366.452263 901.59685,366.452263 C903.664732,366.452263 904.622084,365.852645 904.622084,364.940727 C904.622084,364.116252 903.805144,363.641555 902.771203,363.329254 C902.515909,363.24181 902.132968,363.129382 901.877674,363.041938 C899.554499,362.329892 897.627029,360.993244 897.627029,358.319949 C897.627029,355.296877 899.93744,353.273168 903.779614,353.273168 C905.796437,353.273168 907.711142,353.747865 907.838789,353.785341 L907.838789,357.233142 L907.838789,357.233142 Z M938.729361,357.395539 C936.25301,357.395539 934.427658,359.294328 934.427658,361.64283 C934.427658,363.991332 936.25301,365.890121 938.729361,365.890121 C941.205713,365.890121 943.04383,363.991332 943.04383,361.64283 C943.04383,359.294328 941.205713,357.395539 938.729361,357.395539 L938.729361,357.395539 Z M947.447651,361.64283 C947.447651,366.264882 943.809712,370 938.729361,370 C933.649011,370 930.011072,366.264882 930.011072,361.64283 C930.011072,357.020778 933.649011,353.273168 938.729361,353.273168 C943.809712,353.273168 947.447651,357.020778 947.447651,361.64283 L947.447651,361.64283 Z M882.143448,358.195029 C881.977507,358.107584 880.637214,357.333078 878.645921,357.333078 C875.939804,357.333078 874.076158,359.169407 874.076158,361.64283 C874.076158,364.0413 875.863216,365.952581 878.645921,365.952581 C880.59892,365.952581 881.964743,365.190567 882.143448,365.090631 L882.143448,369.425366 C881.620096,369.575271 880.203214,370 878.339568,370 C873.654923,370 869.553625,366.839516 869.553625,361.64283 C869.553625,356.808413 873.271982,353.273168 878.339568,353.273168 C880.305332,353.273168 881.747743,353.735373 882.143448,353.860293 L882.143448,358.195029 L882.143448,358.195029 Z M925.620015,358.195029 C925.454074,358.107584 924.113781,357.333078 922.122487,357.333078 C919.429136,357.333078 917.56549,359.169407 917.56549,361.64283 C917.56549,364.0413 919.352548,365.952581 922.122487,365.952581 C924.075486,365.952581 925.441309,365.190567 925.620015,365.090631 L925.620015,369.425366 C925.109427,369.575271 923.679781,370 921.828899,370 C917.144255,370 913.034021,366.839516 913.034021,361.64283 C913.034021,356.808413 916.748549,353.273168 921.828899,353.273168 C923.781898,353.273168 925.237074,353.735373 925.620015,353.860293 L925.620015,358.195029 Z M892.036091,369.712683 L887.874798,369.712683 L887.874798,353.560484 L892.036091,353.560484 L892.036091,369.712683 Z" id="Shape"></path>
            </g>
        </g>
    </g>
</svg>