<?xml version="1.0" encoding="UTF-8"?>
<svg width="80px" height="38px" viewBox="0 0 80 38" version="1.1" xmlns="http://www.w3.org/2000/svg" xmlns:xlink="http://www.w3.org/1999/xlink">
    <!-- Generator: Sketch 63.1 (92452) - https://sketch.com/ -->
    <title>Shape</title>
    <desc>Created with Sketch.</desc>
    <g id="About" stroke="none" stroke-width="1" fill="none" fill-rule="evenodd">
        <g transform="translate(-451.000000, -4673.000000)" fill="#B0B4B9" id="partners">
            <g transform="translate(0.000000, 4346.000000)">
                <path d="M483.929674,364.980535 C480.611864,364.749128 477.803774,361.962986 477.803774,358.038322 L477.803774,339.359139 C477.803774,338.68343 477.303322,338.100284 476.57118,338.100284 L470.732577,338.100284 C458.091537,338.081771 459.21292,354.224732 469.972632,354.243245 L476.441433,354.243245 L476.441433,358.936181 L469.750209,358.936181 C465.459298,358.936181 462.280503,357.334844 460.139682,354.955979 C457.989593,352.567857 456.914489,349.365183 456.914489,346.162508 C456.905281,342.959834 457.971058,339.775672 460.167485,337.38755 C462.363912,335.008685 465.681721,333.407348 470.232125,333.407348 L481.25133,333.407348 C481.974205,333.407348 482.576601,334.036775 482.576601,334.758765 L482.576601,357.538482 C482.567333,358.71403 483.234602,359.621146 484.096491,359.889579 C484.95838,360.158011 485.968551,359.815528 486.561679,358.96395 L486.589482,358.936181 C489.721939,353.817456 502.159091,333.888674 502.177626,333.851649 C502.520528,333.370322 502.928304,333.27776 503.224868,333.379579 C503.521432,333.481398 503.817996,333.796112 503.817996,334.592152 L503.817996,357.538482 C503.808728,358.71403 504.475997,359.621146 505.337886,359.889579 C506.199775,360.158011 507.191411,359.815528 507.784539,358.96395 L507.784539,358.936181 L507.830877,358.936181 C510.963334,353.817456 523.400486,333.888674 523.419021,333.851649 C523.752656,333.370322 524.151164,333.27776 524.466263,333.379579 C524.781362,333.481398 525.087194,333.777599 525.087194,334.564383 L525.087194,364.860204 L520.360705,364.860204 L520.360705,347.180699 C520.360705,347.180699 517.543348,351.984711 512.724183,360.269086 C507.997694,368.377592 499.072972,365.01756 499.072972,358.038322 L499.072972,347.180699 C499.072972,347.180699 496.301952,351.984711 491.47352,360.269086 C489.397572,363.814243 486.515341,365.174917 483.929674,364.980535 L483.929674,364.980535 Z M470.575027,364.860204 C444.292044,364.860204 444.54227,327.4463 470.927197,327.427788 L481.25133,327.427788 C485.690523,327.427788 488.517148,330.047316 488.517148,334.897609 L488.517148,344.385301 C488.517148,344.385301 494.309413,334.814303 496.589249,331.065508 C500.453848,324.687927 509.786346,325.946782 509.758543,333.907187 L509.758543,344.385301 C509.758543,344.385301 515.532273,334.814303 517.802841,331.065508 C521.66744,324.687927 531.027741,325.946782 531,333.907187 L531,364.86946 L526.27345,364.86946 L526.27345,334.573639 C526.282717,333.407348 525.671054,332.546513 524.8277,332.278081 C523.984347,332.000392 523.020514,332.352131 522.427386,333.17594 L522.40885,333.17594 L522.40885,333.222222 C522.40885,333.222222 509.962431,353.095466 506.792903,358.278985 C506.783636,358.288241 506.774368,358.269729 506.7651,358.278985 C506.755833,358.278985 506.774368,358.306754 506.7651,358.306754 C506.440734,358.741799 506.014423,358.834362 505.671521,358.732543 C505.319351,358.621468 504.976449,358.31601 504.985717,357.547739 L504.985717,334.601408 C504.994984,333.444373 504.392589,332.537257 503.558502,332.250312 C502.724416,331.972623 501.769851,332.342875 501.185991,333.17594 L501.185991,333.203709 L501.158188,333.203709 C501.158188,333.203709 488.7025,353.113978 485.542241,358.288241 C485.208606,358.760312 484.782295,358.871387 484.430126,358.760312 C484.077956,358.649236 483.735054,358.343779 483.744321,357.575507 L483.744321,357.547739 L483.744321,334.768021 C483.744321,333.388835 482.604404,332.231799 481.223528,332.231799 L470.21359,332.231799 C465.37589,332.231799 461.715178,333.971981 459.296328,336.59151 C456.877478,339.211038 455.681955,342.691401 455.681955,346.171764 C455.691222,349.642871 456.877478,353.151003 459.240722,355.770532 C461.603967,358.39006 465.144199,360.130242 469.731673,360.130242 L476.422898,360.130242 L476.422898,364.86946 L470.575027,364.860204 L470.575027,364.860204 Z" id="Shape" transform="translate(491.000000, 346.000000) scale(-1, 1) rotate(-180.000000) translate(-491.000000, -346.000000) "></path>
            </g>
        </g>
    </g>
</svg>