<?xml version="1.0" encoding="UTF-8"?>
<svg width="99px" height="40px" viewBox="0 0 99 40" version="1.1" xmlns="http://www.w3.org/2000/svg" xmlns:xlink="http://www.w3.org/1999/xlink">
    <!-- Generator: Sketch 63.1 (92452) - https://sketch.com/ -->
    <title>Combined Shape</title>
    <desc>Created with Sketch.</desc>
    <g id="About" stroke="none" stroke-width="1" fill="none" fill-rule="evenodd">
        <g transform="translate(-242.000000, -4671.000000)" fill="#B0B4B9" id="partners">
            <g transform="translate(0.000000, 4346.000000)">
                <path d="M254.797891,333.717699 C247.818981,333.717699 242,336.701609 242,345.711848 C242,352.849829 245.905097,357.354949 254.97188,357.354949 C265.643234,357.354949 266.319859,350.255973 266.319859,350.255973 L261.158172,350.255973 C261.158172,350.255973 260.056239,354.078498 254.662566,354.078498 C250.274165,354.078498 247.103691,351.094588 247.103691,346.882009 L266.880492,346.882009 L266.880492,344.249147 C266.880492,340.114578 264.27065,333.717699 254.797891,333.717699 L254.797891,333.717699 Z M271.906854,325 L271.906854,337.540224 C271.906854,337.540224 274.052724,333.795709 280.934974,333.795709 C288.300527,333.795709 292.650264,339.041931 292.650264,345.555826 C292.650264,346.337209 292.591271,347.092358 292.476753,347.817395 C293.671919,344.46149 297.778202,342.805948 304.539543,342.805948 L304.539543,342.805948 L310.667838,342.805948 L310.667838,341.713798 C310.667838,338.651877 308,337.052657 304.539543,337.052657 C299.223199,337.052657 298.952548,340.446124 298.952548,340.446124 L298.952548,340.446124 L293.732865,340.446124 C293.732865,339.509995 294.40949,333.717699 304.906854,333.717699 C308.494483,333.717699 312.431279,334.480902 314.415789,337.4766 L312.910369,334.634325 L318.787346,334.634325 L327.235501,351.699171 L335.664323,334.634325 L341,334.634325 L325.669596,365 L320.082601,365 L324.509666,356.535836 L315.047502,338.6675 C315.476686,339.701459 315.717511,340.938912 315.713533,342.415895 L315.713533,342.415895 L315.713533,353.376402 C315.713533,354.644076 315.887522,356.63335 315.887522,356.63335 L315.887522,356.63335 L311.247803,356.63335 C311.247803,356.63335 311.13181,355.03413 311.13181,353.415407 C311.13181,353.415407 308.773286,357.491468 301.446397,357.491468 C296.091388,357.491468 292.108963,354.878108 292.108963,350.080449 C292.108963,349.821406 292.121078,349.569356 292.14524,349.324285 C290.75498,354.251866 286.57809,357.452462 280.934974,357.452462 C274.304042,357.452462 271.86819,353.610434 271.86819,353.610434 C271.86819,355.053632 271.6942,356.652852 271.6942,356.652852 L271.6942,356.652852 L266.764499,356.652852 C266.764499,356.652852 266.880492,354.429547 266.880492,352.849829 L266.880492,352.849829 L266.880492,325 L271.906854,325 Z M310.68717,346.082399 C302.741652,346.082399 297.347979,346.121404 297.347979,350.080449 C297.347979,352.264749 298.952548,354.156509 302.702988,354.156509 C309.527241,354.156509 310.68717,349.43686 310.68717,347.5451 L310.68717,347.5451 Z M279.678383,337.228181 C274.362039,337.228181 271.926186,341.479766 271.926186,345.575329 C271.926186,350.002438 274.652021,353.980985 279.717047,353.980985 C283.950791,353.980985 287.43058,350.646026 287.43058,345.536324 C287.43058,340.777669 284.414763,337.228181 279.678383,337.228181 Z M254.623902,337.091663 C258.799649,337.091663 261.660808,339.666017 261.660808,343.54705 L247.238941,343.54705 C247.219684,339.431984 250.950791,337.091663 254.623902,337.091663 Z" id="Combined-Shape"></path>
            </g>
        </g>
    </g>
</svg>