<?xml version="1.0" encoding="UTF-8"?>
<svg width="110px" height="35px" viewBox="0 0 110 35" version="1.1" xmlns="http://www.w3.org/2000/svg" xmlns:xlink="http://www.w3.org/1999/xlink">
    <!-- Generator: Sketch 63.1 (92452) - https://sketch.com/ -->
    <title>Shape</title>
    <desc>Created with Sketch.</desc>
    <g id="About" stroke="none" stroke-width="1" fill="none" fill-rule="evenodd">
        <g transform="translate(-641.000000, -4676.000000)" fill="#B0B4B9" id="partners">
            <g transform="translate(0.000000, 4346.000000)">
                <path d="M655.124023,357.152318 C659.265998,357.152318 662.387191,355.830574 664.830504,353.34713 C667.345679,350.89128 668.126543,347.453091 668.126543,344.671634 C668.126543,343.807947 668.058642,343.016004 667.92284,342.350993 L655.124023,342.350993 L655.124023,346.059603 L664.222222,346.059603 C663.950617,348.145695 663.234825,349.668874 662.152932,350.728477 C660.826595,352.017108 658.75787,353.443709 655.124023,353.443709 C649.52302,353.443709 645.142541,349.039735 645.142541,343.576159 C645.142541,338.112583 649.52302,333.70585 655.124023,333.70585 C658.143364,333.70585 660.353832,334.86755 661.980633,336.357616 L664.66358,333.741722 C662.387191,331.625276 659.36785,330 655.124023,330 C647.449769,330 641,336.089956 641,343.576159 C641,351.059603 647.449769,357.152318 655.124023,357.152318 Z M678.484311,357.152318 C683.438272,357.152318 687.478395,353.443709 687.478395,348.407837 C687.478395,343.344371 683.438272,339.668874 678.484311,339.668874 C673.521862,339.668874 669.481739,343.344371 669.481739,348.407837 C669.481739,353.443709 673.521862,357.152318 678.484311,357.152318 Z M678.484311,353.708609 C675.765432,353.708609 673.42001,351.523179 673.42001,348.407837 C673.42001,345.264901 675.765432,343.115342 678.484311,343.115342 C681.197531,343.115342 683.540123,345.264901 683.540123,348.407837 C683.540123,351.523179 681.197531,353.708609 678.484311,353.708609 L678.484311,353.708609 Z M698.104938,357.152318 C703.061728,357.152318 707.101852,353.443709 707.101852,348.407837 C707.101852,343.344371 703.061728,339.668874 698.104938,339.668874 C693.145319,339.668874 689.105195,343.344371 689.105195,348.407837 C689.105195,353.443709 693.145319,357.152318 698.104938,357.152318 Z M698.104938,353.708609 C695.388889,353.708609 693.043467,351.523179 693.043467,348.407837 C693.043467,345.264901 695.388889,343.115342 698.104938,343.115342 C700.820988,343.115342 703.16358,345.264901 703.16358,348.407837 C703.16358,351.523179 700.820988,353.708609 698.104938,353.708609 L698.104938,353.708609 Z M717.388889,365 C722.003344,365 725.913323,362.353753 725.913323,355.89404 L725.913323,340.198675 L722.175926,340.198675 L722.175926,341.622517 L722.040123,341.622517 C721.154578,340.596026 719.457047,339.668874 717.323817,339.668874 C712.839506,339.668874 708.734311,343.509934 708.734311,348.443709 C708.734311,353.34713 712.839506,357.152318 717.323817,357.152318 C719.457047,357.152318 721.154578,356.225166 722.040123,355.165563 L722.175926,355.165563 L722.175926,356.423841 C722.175926,359.770971 720.342593,361.556291 717.388889,361.556291 C714.981224,361.556291 713.484568,359.870309 712.870628,358.440949 L709.444444,359.834437 C710.431842,362.155077 713.04321,365 717.388889,365 L717.388889,365 Z M717.657665,353.708609 C714.944444,353.708609 712.666924,351.492826 712.666924,348.443709 C712.666924,345.364238 714.944444,343.115342 717.657665,343.115342 C720.342593,343.115342 722.447531,345.364238 722.447531,348.443709 C722.447531,351.492826 720.342593,353.708609 717.657665,353.708609 Z M732.564815,330.927152 L728.626543,330.927152 L728.626543,356.622517 L732.564815,356.622517 L732.564815,330.927152 Z M743.361111,357.152318 C747.466307,357.152318 749.845679,354.704746 750.830247,353.278146 L747.771862,351.29415 C746.756173,352.745585 745.364198,353.708609 743.361111,353.708609 C741.358025,353.708609 739.92927,352.81457 739.015432,351.059603 L751,346.222406 L750.592593,345.231788 C749.845679,343.278146 747.568158,339.668874 742.919753,339.668874 C738.302469,339.668874 734.466049,343.21468 734.466049,348.407837 C734.466049,353.311258 738.268519,357.152318 743.361111,357.152318 L743.361111,357.152318 Z M738.37037,348.145695 C738.268519,344.770971 741.052469,343.046358 743.055556,343.046358 C744.617284,343.046358 745.941358,343.807947 746.385545,344.900662 L738.37037,348.145695 Z" id="Shape"></path>
            </g>
        </g>
    </g>
</svg>