<?xml version="1.0" encoding="UTF-8"?>
<svg width="159px" height="22px" viewBox="0 0 159 22" version="1.1" xmlns="http://www.w3.org/2000/svg" xmlns:xlink="http://www.w3.org/1999/xlink">
    <!-- Generator: Sketch 63.1 (92452) - https://sketch.com/ -->
    <title>Shape</title>
    <desc>Created with Sketch.</desc>
    <g id="About" stroke="none" stroke-width="1" fill="none" fill-rule="evenodd">
        <g transform="translate(-1299.000000, -4680.000000)" fill="#B0B4B9" id="partners">
            <g transform="translate(0.000000, 4346.000000)">
                <path d="M1361.04972,353.252707 L1347.24767,353.243237 L1347.24767,347.125059 C1347.24767,346.308324 1347.94353,345.613743 1348.76896,345.613743 L1361.04972,345.613743 C1363.19009,345.613743 1364.91775,347.32297 1364.91775,349.424229 C1364.91775,351.549162 1363.19009,353.257915 1361.04972,353.257915 L1361.04972,353.252707 Z M1347.24767,336.328525 L1361.1121,336.344149 C1363.05572,336.344149 1364.6298,337.899498 1364.6298,339.819419 C1364.6298,341.728449 1363.05572,343.28143 1361.1121,343.28143 L1348.55781,343.28143 C1348.1019,343.314573 1347.65079,343.416369 1347.24767,343.587766 L1347.24767,336.328052 L1347.24767,336.328525 Z M1364.6538,344.42486 C1366.05992,343.367129 1366.98613,341.699568 1366.98613,339.808529 C1366.98613,336.612607 1364.35146,334.008522 1361.10731,334.008522 L1344.7488,334.000473 L1344.7488,355.570342 L1361.04972,355.570342 C1364.48583,355.570342 1367.26928,352.818535 1367.26928,349.419021 C1367.26928,347.359427 1366.23748,345.541302 1364.6538,344.42486 L1364.6538,344.42486 Z M1437.29213,344.804583 C1436.76423,344.804583 1436.26513,344.91064 1435.80442,345.095767 L1435.75643,336.328052 L1449.4577,336.323317 C1451.83323,336.323317 1453.75765,338.213882 1453.75765,340.562766 C1453.75765,342.909283 1451.83323,344.812159 1449.4577,344.812159 L1437.26813,344.802689 L1437.29213,344.804583 Z M1456.44511,353.252233 C1455.84523,353.729017 1454.991,353.632903 1454.4679,353.086519 L1449.68326,347.095231 C1453.25854,346.986332 1456.11398,344.10006 1456.11398,340.557558 C1456.11398,336.931726 1453.13857,334 1449.4673,334 L1433.28013,334 L1433.28013,355.571762 L1435.78043,355.571762 L1435.82842,348.544048 C1435.87641,347.760929 1436.52908,347.108488 1437.34012,347.108488 L1446.54948,347.108488 L1452.52909,354.602096 C1453.90642,356.207159 1456.32033,356.474669 1458,355.172154 L1456.46911,353.251286 L1456.44511,353.252233 Z M1392.31069,353.102143 L1392.31069,347.215965 C1392.31069,346.407752 1393.00655,345.743474 1393.81759,345.728323 L1404.68742,345.728323 L1404.68742,343.247341 L1393.7792,343.247341 C1393.27391,343.257619 1392.77535,343.36371 1392.31069,343.559831 L1392.31069,336.468672 L1410.05755,336.468672 L1410.05755,334.000473 L1389.79119,334.000473 L1389.79119,355.570342 L1410.79181,355.570342 L1410.79181,353.102617 L1392.31069,353.102617 L1392.31069,353.102143 Z M1319.81633,334.052555 L1319.81633,346.618446 C1319.81633,350.917553 1317.71435,353.45914 1311.40025,353.45914 C1305.06791,353.45914 1302.95393,350.918027 1302.95393,346.618446 L1302.95393,337.785392 C1302.87379,335.691708 1301.13365,334.009943 1299,334.009943 L1299,336.448313 C1299.77361,336.448313 1300.38884,337.041097 1300.46179,337.785392 L1300.46179,347.476374 C1300.46179,352.457277 1304.421,355.997885 1311.39977,355.997885 C1318.36798,355.997885 1322.31184,352.457277 1322.31184,347.476374 L1322.31184,334.053502 L1319.81633,334.053502 L1319.81633,334.052555 Z" id="Shape"></path>
            </g>
        </g>
    </g>
</svg>